<svg id="Layer_1" data-name="Layer 1" xmlns="http://www.w3.org/2000/svg" xmlns:xlink="http://www.w3.org/1999/xlink" viewBox="0 0 257.16 23.04"><defs><style>.cls-1{fill:none;}.cls-2{fill:#fff;}.cls-3{clip-path:url(#clip-path);}.cls-4{fill:#ff5f00;}.cls-5{fill:#eb001b;}.cls-6{fill:#f79e1b;}.cls-7{clip-path:url(#clip-path-2);}.cls-8{fill:#00579f;}.cls-9{fill:#faa61a;}.cls-10{fill:#676767;}.cls-11{clip-path:url(#clip-path-3);}.cls-12{fill:#03958f;}.cls-13{fill:#085028;}.cls-14{fill:#faa41a;}.cls-15{fill:#024d28;}.cls-16{fill:#024e27;}.cls-17{fill:#024d27;}</style><clipPath id="clip-path"><rect class="cls-1" x="48.92" y="2.88" width="30.14" height="17.28"/></clipPath><clipPath id="clip-path-2"><rect class="cls-1" x="94" y="2.99" width="31" height="17.06"/></clipPath><clipPath id="clip-path-3"><rect class="cls-1" x="144" y="2.99" width="43.42" height="17.06"/></clipPath></defs><title>payment_method</title><rect class="cls-2" x="46" width="35.98" height="23.04" rx="4" ry="4"/><g class="cls-3"><path class="cls-4" d="M59.8,18.29h8.07V4.72H59.8Z"/><path class="cls-5" d="M60.31,11.51a8.45,8.45,0,0,1,3.52-6.79,9.58,9.58,0,0,0-5.69-1.84c-5.1,0-9.22,3.86-9.22,8.63s4.12,8.63,9.22,8.63a9.52,9.52,0,0,0,5.69-1.85A8.43,8.43,0,0,1,60.31,11.51Z"/><path class="cls-6" d="M78.46,16.85v-.33h-.09l-.11.23-.1-.23h-.1v.33h.07V16.6l.1.22h.07l.1-.22v.25Zm-.59,0v-.27H78v-.06h-.3v.06h.12v.27Zm.88-5.34c0,4.76-4.13,8.63-9.22,8.63a9.57,9.57,0,0,1-5.7-1.85,8.42,8.42,0,0,0,3.53-6.78,8.44,8.44,0,0,0-3.53-6.79,9.63,9.63,0,0,1,5.7-1.84C74.62,2.88,78.75,6.74,78.75,11.51Z"/><path class="cls-2" d="M54.47,9.44l.27,2,.95-2h.89l-.49,2.84h-.67l.12-.7.29-1.28-1,2h-.44l-.33-2.06-.18,1.43-.11.63h-.66l.49-2.84Zm3.22,2.84a.5.5,0,0,1,0-.19.65.65,0,0,1-.52.23.61.61,0,0,1-.45-.18.56.56,0,0,1-.17-.44.61.61,0,0,1,.28-.53,1.4,1.4,0,0,1,.76-.18h.22l0-.12v-.1a.18.18,0,0,0-.18-.19.25.25,0,0,0-.26.24h-.64a.55.55,0,0,1,.14-.37.69.69,0,0,1,.35-.24,1,1,0,0,1,.47-.08.93.93,0,0,1,.42.1.62.62,0,0,1,.27.26.7.7,0,0,1,.07.39l-.16,1V12a.45.45,0,0,0,0,.24v0Zm-.37-.43a.41.41,0,0,0,.35-.17l.06-.34h-.16a.42.42,0,0,0-.27.09.36.36,0,0,0-.13.24.15.15,0,0,0,0,.13A.17.17,0,0,0,57.32,11.85Zm2.45-.18c0-.08-.05-.15-.2-.19l-.14,0a1.07,1.07,0,0,1-.5-.26.52.52,0,0,1-.15-.38.62.62,0,0,1,.27-.49,1.05,1.05,0,0,1,.64-.19.88.88,0,0,1,.6.19.59.59,0,0,1,.24.5h-.64c0-.17-.07-.25-.22-.25a.27.27,0,0,0-.18,0,.21.21,0,0,0-.1.16c0,.1.07.17.28.21a2.43,2.43,0,0,1,.42.15.64.64,0,0,1,.22.21.51.51,0,0,1,.07.3.52.52,0,0,1-.12.34.65.65,0,0,1-.35.24,1.28,1.28,0,0,1-.48.09.88.88,0,0,1-.43-.1.76.76,0,0,1-.31-.25.67.67,0,0,1-.11-.37h.6a.24.24,0,0,0,.28.28.39.39,0,0,0,.2-.05A.26.26,0,0,0,59.77,11.67Zm2-2-.09.53H62l-.08.45h-.34l-.17,1a.22.22,0,0,0,0,.15s.06.06.13.06h.17l-.05.48a1.29,1.29,0,0,1-.35.05.58.58,0,0,1-.44-.18.64.64,0,0,1-.13-.47L61,10.62h-.26l.07-.45h.26l.1-.53ZM63,12.32a1.07,1.07,0,0,1-.51-.13.79.79,0,0,1-.33-.37.91.91,0,0,1-.09-.52v-.06a1.35,1.35,0,0,1,.36-.82,1,1,0,0,1,.76-.29.82.82,0,0,1,.47.14.71.71,0,0,1,.28.37,1.1,1.1,0,0,1,.06.52l0,.27H62.7a.4.4,0,0,0,.09.27.33.33,0,0,0,.26.11.68.68,0,0,0,.5-.22l.27.36a.8.8,0,0,1-.33.27,1.2,1.2,0,0,1-.47.1Zm.15-1.69a.36.36,0,0,0-.24.09.82.82,0,0,0-.17.3h.64V11a.53.53,0,0,0,0-.13C63.37,10.7,63.28,10.64,63.14,10.63Zm2.45.13-.2,0a.5.5,0,0,0-.44.2l-.24,1.34h-.64l.37-2.11H65l-.05.28a.6.6,0,0,1,.49-.32l.2,0Zm3.37.55a1,1,0,0,1-.2.53,1,1,0,0,1-.45.36,1.46,1.46,0,0,1-.6.12A.94.94,0,0,1,67,12a1.16,1.16,0,0,1-.28-.75,2.45,2.45,0,0,1,.07-.69,1.91,1.91,0,0,1,.28-.65,1.39,1.39,0,0,1,.47-.41,1.15,1.15,0,0,1,.58-.13,1,1,0,0,1,.74.27,1.13,1.13,0,0,1,.29.75h-.67a.49.49,0,0,0-.09-.37.44.44,0,0,0-.31-.12c-.35,0-.56.26-.64.82a3.5,3.5,0,0,0,0,.54c0,.32.11.49.35.5a.56.56,0,0,0,.38-.12.62.62,0,0,0,.18-.35Zm1.35,1a.5.5,0,0,1,0-.19.66.66,0,0,1-.52.23.65.65,0,0,1-.46-.18.55.55,0,0,1-.16-.44.61.61,0,0,1,.28-.53,1.4,1.4,0,0,1,.76-.18h.21l0-.12v-.1a.18.18,0,0,0-.18-.19.25.25,0,0,0-.26.24h-.65a.67.67,0,0,1,.14-.37.79.79,0,0,1,.35-.24,1.09,1.09,0,0,1,.47-.08.9.9,0,0,1,.42.1.59.59,0,0,1,.28.26.62.62,0,0,1,.06.39l-.15,1V12a.45.45,0,0,0,0,.24v0Zm-.37-.43a.41.41,0,0,0,.35-.17l.06-.34h-.17a.39.39,0,0,0-.26.09.32.32,0,0,0-.13.24.15.15,0,0,0,0,.13A.15.15,0,0,0,69.94,11.85Zm2.78-1.09-.2,0a.5.5,0,0,0-.44.2l-.24,1.34H71.2l.36-2.11h.6l0,.28a.58.58,0,0,1,.48-.32l.2,0Zm0,.46a1.48,1.48,0,0,1,.31-.8.73.73,0,0,1,.63-.29.58.58,0,0,1,.45.22l.21-1.07H75l-.52,3H73.9l0-.23a.65.65,0,0,1-.53.27.61.61,0,0,1-.48-.22,1.07,1.07,0,0,1-.18-.6,1.93,1.93,0,0,1,0-.24Zm.64,0a1.86,1.86,0,0,0,0,.22c0,.22.07.33.22.33a.42.42,0,0,0,.34-.18l.14-.81a.27.27,0,0,0-.26-.19.34.34,0,0,0-.29.16A1,1,0,0,0,73.39,11.26Z"/></g><rect class="cls-2" x="92" width="35.98" height="23.04" rx="4" ry="4"/><g class="cls-7"><path class="cls-8" d="M107.43,19.93h-2.51l1.57-16.64H109Z"/><path class="cls-8" d="M116.54,3.7A4,4,0,0,0,114.28,3c-2.48,0-4.22,2.27-4.23,5.5a5.56,5.56,0,0,0,2.2,4.52c1,.81,1.3,1.34,1.3,2.07A1.52,1.52,0,0,1,112,16.71a3.37,3.37,0,0,1-2.35-.89l-.33-.26L109,19.29a5,5,0,0,0,2.8.88c2.64,0,4.35-2.23,4.38-5.68A5.5,5.5,0,0,0,114.07,10c-.88-.76-1.42-1.27-1.42-2.05a1.38,1.38,0,0,1,1.45-1.43,2.88,2.88,0,0,1,1.87.63l.22.18.35-3.59Z"/><path class="cls-8" d="M119.87,14c.21-.95,1-4.65,1-4.65s.2-1,.33-1.59l.17,1.43L122,14ZM123,3.29H121c-.6,0-1,.3-1.31,1.38L116,19.93h2.63s.44-2.06.53-2.5h3.23l.3,2.5H125L123,3.29Z"/><path class="cls-8" d="M102.82,3.29l-2.46,11.35-.26-2.31a13.22,13.22,0,0,0-3.48-7l2.26,14.55h2.65l4-16.62Z"/><path class="cls-9" d="M98.08,3.29H94l0,.34c3.15,1.38,5.24,4.71,6.1,8.71l-.88-7.65C99.07,3.63,98.63,3.33,98.08,3.29Z"/></g><rect class="cls-2" x="204" width="53.16" height="23.04" rx="4" ry="4"/><path class="cls-10" d="M216.11,9.14a2.08,2.08,0,0,1-.67,1.42,2.29,2.29,0,0,1-1.56.51,2.21,2.21,0,0,1-1.2-.33,2.16,2.16,0,0,1-.8-.91,3.5,3.5,0,0,1-.29-1.38V7.92a3.19,3.19,0,0,1,.29-1.42,2.17,2.17,0,0,1,.81-1,2.32,2.32,0,0,1,1.24-.33,2.19,2.19,0,0,1,1.51.51,2.16,2.16,0,0,1,.67,1.45h-1a1.36,1.36,0,0,0-.37-.88,1.13,1.13,0,0,0-.83-.28,1.18,1.18,0,0,0-1,.47,2.42,2.42,0,0,0-.35,1.38v.51a2.48,2.48,0,0,0,.33,1.4,1.08,1.08,0,0,0,1,.49,1.27,1.27,0,0,0,.87-.26,1.41,1.41,0,0,0,.38-.87Zm4.55.52h-2.2L218,11h-1l2.15-5.69H220L222.15,11h-1Zm-1.93-.79h1.65l-.82-2.36Zm7.53.65a.69.69,0,0,0-.27-.58,3.27,3.27,0,0,0-1-.41A4.19,4.19,0,0,1,224,8.07a1.45,1.45,0,0,1-.78-1.27,1.38,1.38,0,0,1,.56-1.13,2.25,2.25,0,0,1,1.46-.45,2.38,2.38,0,0,1,1.05.22,1.75,1.75,0,0,1,.74.63,1.6,1.6,0,0,1,.26.89h-1a.92.92,0,0,0-.28-.7,1.21,1.21,0,0,0-.8-.25,1.18,1.18,0,0,0-.75.21.69.69,0,0,0-.27.58.64.64,0,0,0,.29.52,3.52,3.52,0,0,0,1,.41,4.8,4.8,0,0,1,1.07.44,1.72,1.72,0,0,1,.59.58,1.55,1.55,0,0,1,.18.76,1.37,1.37,0,0,1-.54,1.14,2.37,2.37,0,0,1-1.48.42,2.78,2.78,0,0,1-1.13-.23,2,2,0,0,1-.81-.63,1.61,1.61,0,0,1-.29-.94h1a.94.94,0,0,0,.32.75,1.4,1.4,0,0,0,.92.26,1.24,1.24,0,0,0,.77-.2A.68.68,0,0,0,226.26,9.52ZM233.11,11h-1V8.46h-2.54V11h-1V5.3h1V7.67h2.54V5.3h1Zm8.66-2.7a3.54,3.54,0,0,1-.29,1.47,2.2,2.2,0,0,1-.83,1,2.29,2.29,0,0,1-1.23.34,2.38,2.38,0,0,1-1.24-.34,2.26,2.26,0,0,1-.83-1,3.25,3.25,0,0,1-.3-1.44V8a3.45,3.45,0,0,1,.3-1.47,2.2,2.2,0,0,1,.83-1,2.23,2.23,0,0,1,1.23-.34,2.19,2.19,0,0,1,1.23.34,2.12,2.12,0,0,1,.83,1,3.31,3.31,0,0,1,.3,1.46Zm-1-.3a2.43,2.43,0,0,0-.36-1.44,1.25,1.25,0,0,0-2,0A2.44,2.44,0,0,0,238,8v.33a2.48,2.48,0,0,0,.36,1.45,1.2,1.2,0,0,0,1,.51,1.15,1.15,0,0,0,1-.5,2.56,2.56,0,0,0,.35-1.46Zm7,3h-1l-2.54-4v4h-1V5.3h1l2.55,4.05v-4h1ZM212,19V13.3h1.68a2.53,2.53,0,0,1,1.33.34,2.2,2.2,0,0,1,.91.95,3.05,3.05,0,0,1,.32,1.41v.29a3.06,3.06,0,0,1-.32,1.42,2.25,2.25,0,0,1-.92.94,2.67,2.67,0,0,1-1.36.34Zm1-4.89v4.1h.64a1.45,1.45,0,0,0,1.19-.49,2.12,2.12,0,0,0,.43-1.39V16a2.24,2.24,0,0,0-.4-1.42,1.45,1.45,0,0,0-1.17-.48Zm8,2.35h-2.34V18.2h2.73V19h-3.72V13.3h3.7v.8h-2.71v1.57h2.34Zm2.67,1.75h2.58V19h-3.57V13.3h1Zm4.86.79h-1V13.3h1Zm3.7-1.24,1.44-4.45h1.09L232.78,19h-.95l-2-5.69h1.08Zm7-1.3h-2.34V18.2h2.73V19H236V13.3h3.7v.8h-2.71v1.57h2.34Zm3.77.35H242V19h-1V13.3h2a2.37,2.37,0,0,1,1.52.44A1.59,1.59,0,0,1,245,15a1.65,1.65,0,0,1-.27,1,1.85,1.85,0,0,1-.77.59l1.28,2.37v0h-1.06ZM242,16h1a1.13,1.13,0,0,0,.78-.25.88.88,0,0,0,.28-.69.93.93,0,0,0-.26-.71,1.1,1.1,0,0,0-.77-.25h-1Zm6.15,0,1.31-2.69h1.09l-1.91,3.59V19h-1v-2.1l-1.91-3.59h1.1Z"/><rect class="cls-2" x="138" width="55.42" height="23.04" rx="4" ry="4"/><g class="cls-11"><path class="cls-12" d="M147,3h-3V20h3Z"/><path class="cls-12" d="M154.25,3V9.51h-3.9L147.76,13h6.51v7h3V3h-3Z"/><path class="cls-12" d="M171.37,10.87a3.94,3.94,0,0,0,1.46-3.62c0-2-.93-4.18-3.59-4.18h-8.92V20h9.34C173.45,19.89,175,12.6,171.37,10.87ZM169,17l-5.64.05V6.21h5.46a1.13,1.13,0,0,1,.82.53A2,2,0,0,1,170,7.89a1.59,1.59,0,0,1-1.31,1.74h-2l-2.48,3.43,4.87-.12a2.1,2.1,0,0,1,1.48,2.12C170.46,16.94,169,17,169,17Z"/><path class="cls-12" d="M180.91,16.59h-2.22V3.12h-2.92V20.05h9.07l2.58-3.46Z"/></g><rect class="cls-2" width="37" height="22.93" rx="4" ry="4"/><path class="cls-13" d="M18.5,16.42c5.8,0,10.5-3,10.5-6.71S24.3,3,18.5,3,8,6,8,9.71,12.7,16.42,18.5,16.42Z"/><path class="cls-14" d="M18.52,15.49c5.14,0,9.3-2.59,9.3-5.78s-4.16-5.79-9.3-5.79S9.23,6.51,9.23,9.71,13.39,15.49,18.52,15.49Z"/><path class="cls-15" d="M16.36,9.18h-3.2V7.32s3.4,0,4.48-2.06h3.05V14.2H16.41Z"/><path class="cls-16" d="M8,17.69H9.23v1.67h1v.57H8Z"/><path class="cls-15" d="M15.28,17.69H13.9v2.24h1.38Z"/><path class="cls-15" d="M19,19.93V17.69h.93l.79.67v-.67h1.13v2.24H20.69l-.3-.66-.29.66Z"/><path class="cls-17" d="M25.7,17.69h.89s.49,1.43,1,0h1.09s.68-.34-.3,1.12c0,0,.76.69.53,1.12H27.52s.25-.71-.73-.86l-.05.86h-1Z"/></svg>