<?xml version="1.0" encoding="UTF-8"?>
<svg width="24px" height="24px" viewBox="0 0 24 24" version="1.1" xmlns="http://www.w3.org/2000/svg" xmlns:xlink="http://www.w3.org/1999/xlink">
    <title>percentage-38</title>
    <g id="design" stroke="none" stroke-width="1" fill="none" fill-rule="evenodd">
        <g id="cart-summary-—-dektop" transform="translate(-309.000000, -1066.000000)" fill="#F64887">
            <g id="Group-20" transform="translate(0.000000, 1045.000000)">
                <g id="Group-7" transform="translate(247.000000, 21.000000)">
                    <g id="percentage-38" transform="translate(62.000000, 0.000000)">
                        <path d="M12,0 C5.383,0 0,5.383 0,12 C0,18.617 5.383,24 12,24 C18.617,24 24,18.617 24,12 C24,5.383 18.617,0 12,0 Z M6,8 C6,6.895 6.895,6 8,6 C9.105,6 10,6.895 10,8 C10,9.105 9.105,10 8,10 C6.895,10 6,9.105 6,8 Z M8,17.414 L6.586,16 L16,6.586 L17.414,8 L8,17.414 Z M16,18 C14.895,18 14,17.105 14,16 C14,14.895 14.895,14 16,14 C17.105,14 18,14.895 18,16 C18,17.105 17.105,18 16,18 Z" id="Shape"></path>
                    </g>
                </g>
            </g>
        </g>
    </g>
</svg>