<?xml version="1.0" encoding="UTF-8"?>
<svg width="24px" height="24px" viewBox="0 0 24 24" version="1.1" xmlns="http://www.w3.org/2000/svg" xmlns:xlink="http://www.w3.org/1999/xlink">
    <title>replace</title>
    <g id="design" stroke="none" stroke-width="1" fill="none" fill-rule="evenodd">
        <g id="cart-summary-—-dektop" transform="translate(-1108.000000, -1066.000000)" fill="#00C5A2">
            <g id="Group-20" transform="translate(0.000000, 1045.000000)">
                <g id="Group-17" transform="translate(1055.000000, 21.000000)">
                    <g id="replace" transform="translate(53.000000, 0.000000)">
                        <path d="M23,10 C23.553,10 24,10.448 24,11 L24,11 L24,23 C24,23.552 23.553,24 23,24 L23,24 L11,24 C10.447,24 10,23.552 10,23 L10,23 L10,11 C10,10.448 10.447,10 11,10 L11,10 Z M3,16 L3,17 C3,19.206 4.794,21 7,21 L8,21 L8,23 L7,23 C3.691,23 1,20.309 1,17 L1,16 L3,16 Z M13,0 C13.552,0 14,0.448 14,1 L14,1 L14,8 L10,8 C8.895,8 8,8.895 8,10 L8,10 L8,14 L1,14 C0.448,14 0,13.552 0,13 L0,13 L0,1 C0,0.448 0.448,0 1,0 L1,0 Z M17,1 C20.309,1 23,3.691 23,7 L23,8 L21,8 L21,7 C21,4.794 19.206,3 17,3 L16,3 L16,1 L17,1 Z" id="Combined-Shape"></path>
                    </g>
                </g>
            </g>
        </g>
    </g>
</svg>