<svg width="30" height="29" viewBox="0 0 30 29" fill="none" xmlns="http://www.w3.org/2000/svg">
<path d="M19.7292 14.5C19.7292 15.7018 19.2519 16.8543 18.4021 17.7041C17.5523 18.5539 16.3998 19.0313 15.198 19.0313C13.9962 19.0313 12.8437 18.5539 11.9939 17.7041C11.1441 16.8543 10.6667 15.7018 10.6667 14.5C10.6667 14.2417 10.6939 13.9895 10.7408 13.7448H9.15633V19.7819C9.15633 20.2018 9.49617 20.5417 9.91607 20.5417H20.4814C20.6827 20.5413 20.8755 20.461 21.0177 20.3186C21.1598 20.1762 21.2397 19.9832 21.2397 19.7819V13.7448H19.6552C19.7021 13.9895 19.7292 14.2417 19.7292 14.5V14.5ZM15.198 17.5208C15.5948 17.5207 15.9877 17.4425 16.3543 17.2905C16.7208 17.1386 17.0539 16.9159 17.3344 16.6353C17.6149 16.3546 17.8374 16.0215 17.9891 15.6549C18.1409 15.2882 18.2189 14.8953 18.2188 14.4985C18.2187 14.1017 18.1405 13.7088 17.9885 13.3422C17.8366 12.9757 17.6139 12.6426 17.3333 12.3621C17.0526 12.0816 16.7195 11.8591 16.3529 11.7074C15.9862 11.5556 15.5933 11.4776 15.1965 11.4777C14.3951 11.4779 13.6266 11.7964 13.0601 12.3632C12.4936 12.93 12.1755 13.6986 12.1757 14.5C12.1759 15.3014 12.4944 16.0698 13.0612 16.6364C13.628 17.2029 14.3966 17.521 15.198 17.5208V17.5208ZM18.823 11.3281H20.634C20.7543 11.3281 20.8697 11.2804 20.9549 11.1955C21.0401 11.1106 21.0882 10.9953 21.0886 10.875V9.06401C21.0886 8.94343 21.0407 8.82779 20.9555 8.74253C20.8702 8.65727 20.7546 8.60937 20.634 8.60937H18.823C18.7024 8.60937 18.5868 8.65727 18.5015 8.74253C18.4163 8.82779 18.3684 8.94343 18.3684 9.06401V10.875C18.3699 11.1242 18.5738 11.3281 18.823 11.3281V11.3281ZM15.198 0C11.3524 0 7.66423 1.52767 4.94495 4.24695C2.22567 6.96623 0.697998 10.6544 0.697998 14.5C0.697998 18.3456 2.22567 22.0338 4.94495 24.753C7.66423 27.4723 11.3524 29 15.198 29C17.1022 29 18.9877 28.6249 20.7469 27.8963C22.5061 27.1676 24.1046 26.0995 25.451 24.753C26.7975 23.4066 27.8656 21.8081 28.5943 20.0489C29.3229 18.2897 29.698 16.4042 29.698 14.5C29.698 12.5958 29.3229 10.7103 28.5943 8.95109C27.8656 7.19187 26.7975 5.5934 25.451 4.24695C24.1046 2.9005 22.5061 1.83244 20.7469 1.10375C18.9877 0.375054 17.1022 0 15.198 0V0ZM22.7501 20.374C22.7501 21.2969 21.9949 22.0521 21.072 22.0521H9.32399C8.40112 22.0521 7.64591 21.2969 7.64591 20.374V8.62599C7.64591 7.70312 8.40112 6.94792 9.32399 6.94792H21.072C21.9949 6.94792 22.7501 7.70312 22.7501 8.62599V20.374V20.374Z" fill="white"/>
</svg>
