<svg width="29" height="29" viewBox="0 0 29 29" fill="none" xmlns="http://www.w3.org/2000/svg">
<path d="M16.9212 14.2478L13.5288 12.6648C13.2328 12.5274 12.9896 12.6815 12.9896 13.0092V15.9908C12.9896 16.3185 13.2328 16.4726 13.5288 16.3352L16.9197 14.7522C17.2172 14.6133 17.2172 14.3867 16.9212 14.2478ZM14.5 0C6.49177 0 0 6.49177 0 14.5C0 22.5082 6.49177 29 14.5 29C22.5082 29 29 22.5082 29 14.5C29 6.49177 22.5082 0 14.5 0ZM14.5 20.3906C7.07781 20.3906 6.94792 19.7215 6.94792 14.5C6.94792 9.27849 7.07781 8.60937 14.5 8.60937C21.9222 8.60937 22.0521 9.27849 22.0521 14.5C22.0521 19.7215 21.9222 20.3906 14.5 20.3906Z" fill="white"/>
</svg>
