<svg width="29" height="29" viewBox="0 0 29 29" fill="none" xmlns="http://www.w3.org/2000/svg">
<path fill-rule="evenodd" clip-rule="evenodd" d="M14.5 29C22.5081 29 29 22.5081 29 14.5C29 6.49187 22.5081 0 14.5 0C6.49187 0 0 6.49187 0 14.5C0 22.5081 6.49187 29 14.5 29ZM19.6445 8.64286C19.7621 8.71752 19.8834 8.7864 20.008 8.84924L20.0072 8.85004C20.8186 9.2436 21.6103 9.36359 22 9.32199V12.3913C22 12.3913 20.8867 12.3457 20.0613 12.1321C18.9102 11.8322 18.1718 11.3706 18.1718 11.3706C18.1718 11.3706 17.6591 11.0402 17.6205 11.0178V17.3604C17.6205 17.7124 17.5253 18.5939 17.2382 19.3299C16.9866 19.9586 16.627 20.541 16.1749 21.0521C16.1749 21.0521 15.4677 21.9072 14.2247 22.4816C13.1908 22.959 12.2708 22.9858 11.9032 22.9965C11.8723 22.9974 11.8453 22.9982 11.8225 22.9991C11.8225 22.9991 10.12 23.0655 8.58583 22.0496L8.57844 22.0416V22.0496C8.05947 21.6963 7.5967 21.2705 7.20503 20.7857C6.71933 20.1818 6.42069 19.465 6.34439 19.2555V19.2475C6.22214 18.8915 5.96534 18.0276 6.0039 17.1957C6.06462 15.7286 6.57001 14.8239 6.70374 14.5991C7.05553 13.9823 7.51503 13.43 8.06157 12.9673C8.68516 12.4572 9.41043 12.0786 10.1916 11.8556C10.9728 11.6326 11.7929 11.5698 12.6002 11.6714L12.5961 14.8199C12.3303 14.7351 12.0522 14.6919 11.7724 14.6919C10.2956 14.6919 9.09778 15.8662 9.09778 17.3172C9.09778 18.7675 10.2956 19.9418 11.7724 19.9418C12.2326 19.9425 12.6851 19.8261 13.0851 19.6042C13.4685 19.3918 13.7925 19.0907 14.0286 18.7275C14.2647 18.3642 14.4055 17.95 14.4388 17.5212V17.514C14.4413 17.5052 14.4413 17.4956 14.4413 17.4876C14.4416 17.4783 14.4423 17.4698 14.4429 17.4616C14.4438 17.4506 14.4446 17.4402 14.4446 17.4292C14.4511 17.2724 14.4511 17.1133 14.4511 16.9533V5H17.6221C17.6164 5 17.5836 5.29597 17.6632 5.75433H17.6599C17.755 6.30548 18.0151 7.0934 18.7117 7.87013C18.9897 8.16322 19.3029 8.42266 19.6445 8.64286Z" fill="white"/>
</svg>
